<?xml version="1.0" encoding="UTF-8"?>
<svg width="294px" height="325px" viewBox="0 0 294 325" version="1.1" xmlns="http://www.w3.org/2000/svg" xmlns:xlink="http://www.w3.org/1999/xlink">
    <g id="Page-1" stroke="none" stroke-width="1" fill="none" fill-rule="evenodd" stroke-linejoin="round">
        <g id="Group" transform="translate(3.020028, 3.235416)" stroke="#FFFFFF" stroke-width="6">
            <path d="M166.101031,317.790684 C94.6873775,317.790684 3.25654361,300.081223 0.163632018,238.3561 C-2.92927958,176.630976 38.8025929,159.017383 42.5595532,110.257512 C42.5595532,107.961758 56.6855445,150.362166 75.7275902,162.280644 C94.7696358,174.199122 111.007422,209.150228 111.007422,218.750211 C111.007422,221.521567 112.940267,218.362526 111.007422,212.690018 C96.9008732,171.29017 76.8886767,172.507204 80.9921205,135.406114 C87.089703,80.2751146 154.402407,10.8461291 154.402407,0 C150.332865,33.8904143 160.161983,82.9268226 181.875179,101.814821 C203.588376,120.702819 212.339162,151.875719 212.339162,154.596225 C212.339162,157.316731 206.930913,164.490577 207.835086,169.980071 C215.208709,135.406114 246.346913,129.55016 246.346913,112.950999 C246.346913,104.982953 293.652227,169.278581 287.263001,218.750211 C280.873776,268.22184 237.514685,317.790684 166.101031,317.790684 Z" id="Path"></path>
            <path d="M159.42138,317.257249 C188.107836,317.257249 210.509037,316.516496 215.725267,292.768165 C220.941497,269.019834 215.725267,274.746852 215.725267,267.326052 C215.725267,262.378851 206.727673,268.072702 188.732486,284.407603 C200.352035,273.111298 201.482165,257.39406 192.122876,237.255888 C182.763586,217.117717 169.012108,199.197382 150.868443,183.494886 C152.274009,203.724454 149.977852,220.632794 143.979972,234.219905 C137.982093,247.807017 134.526171,262.702424 133.612207,278.906127 C126.372725,266.972259 117.270672,259.233782 106.306048,255.690696 C95.3414248,252.14761 83.8579053,250.376067 71.85549,250.376067 C71.9439382,262.31141 77.7078099,276.442109 89.1471053,292.768165 C106.306048,317.257249 124.818755,317.257249 159.42138,317.257249 Z" id="Path-2"></path>
        </g>
    </g>
</svg>