<?xml version="1.0" encoding="UTF-8"?>
<svg width="769px" height="434px" viewBox="0 0 769 434" version="1.1" xmlns="http://www.w3.org/2000/svg" xmlns:xlink="http://www.w3.org/1999/xlink">
    <title>Group 4</title>
    <defs>
        <filter x="-3.2%" y="-6.0%" width="106.4%" height="111.8%" filterUnits="objectBoundingBox" id="filter-1">
            <feOffset dx="1" dy="2" in="SourceAlpha" result="shadowOffsetOuter1"></feOffset>
            <feGaussianBlur stdDeviation="5" in="shadowOffsetOuter1" result="shadowBlurOuter1"></feGaussianBlur>
            <feColorMatrix values="0 0 0 0 0   0 0 0 0 0   0 0 0 0 0  0 0 0 0.5 0" type="matrix" in="shadowBlurOuter1" result="shadowMatrixOuter1"></feColorMatrix>
            <feMerge>
                <feMergeNode in="shadowMatrixOuter1"></feMergeNode>
                <feMergeNode in="SourceGraphic"></feMergeNode>
            </feMerge>
        </filter>
    </defs>
    <g id="Page-1" stroke="none" stroke-width="1" fill="none" fill-rule="evenodd">
        <g id="Group-4" filter="url(#filter-1)" transform="translate(18.000000, 18.000000)" stroke="#000000">
            <g id="Group-2" transform="translate(239.973720, 291.542051)">
                <path d="M91.2859518,106.008652 C136.02628,106.008652 189.697846,98.9939678 184.859184,76.2008549 C180.020523,53.4077419 136.52628,52.2057352 136.52628,20.3048907 C136.52628,-11.5959538 49.2171512,-0.0213538396 42.4183728,24.0825269 C35.6195944,48.1864077 14.8583054,45.5108842 2.45209013,67.0987577 C-9.95412514,88.6866313 46.5456238,106.008652 91.2859518,106.008652 Z" id="Path-3" fill="#AB8643"></path>
                <path d="M87.6316015,74.6738631 L71.0221854,72.4076785 C69.679153,88.4215139 71.8668675,96.4284316 77.5853287,96.4284316 C83.3037899,96.4284316 86.6525475,89.1769088 87.6316015,74.6738631 Z" id="Path-4" fill="#C1A556"></path>
                <path d="M95.3363722,74.7515132 L111.415459,73.6152689 C116.775155,88.0065969 116.775155,95.5919674 111.415459,96.3713804 C106.055763,97.1507934 100.696068,89.944171 95.3363722,74.7515132 Z" id="Path-6" fill="#C1A556"></path>
                <path d="M118.634879,72.6039364 L133.169346,70.2585373 C144.707642,86.461476 145.82662,94.5629453 136.52628,94.5629453 C131.459927,94.5629453 125.496127,87.2432757 118.634879,72.6039364 Z" id="Path-7" fill="#C1A556"></path>
                <path d="M139.612076,69.1190515 L149.785692,65.2684507 C165.129454,81.1993533 169.113639,89.1648045 161.738248,89.1648045 C154.362858,89.1648045 146.987467,82.4828868 139.612076,69.1190515 Z" id="Path-8" fill="#C1A556"></path>
                <path d="M154.650953,64.0530479 L159.601621,60.3674207 C170.445108,70.7656243 175.253431,76.7462825 174.026592,78.3093953 C172.799753,79.872508 166.341207,75.1203922 154.650953,64.0530479 Z" id="Path-9" fill="#C1A556"></path>
                <path d="M65.1454725,71.9980599 L50.3241269,68.409519 C42.8803621,83.5647049 41.5734695,91.1422979 46.4034489,91.1422979 C51.2334284,91.1422979 57.4807696,84.7608852 65.1454725,71.9980599 Z" id="Path-10" fill="#C1A556"></path>
                <path d="M43.5523994,67.248134 L33.0836552,62.2748368 C20.1539097,76.3895699 16.1473383,83.9719077 21.0639411,85.0218503 C25.9805439,86.0717928 33.4766966,80.1472207 43.5523994,67.248134 Z" id="Path-11" fill="#C1A556"></path>
                <path d="M29.1972858,60.3674207 L23.594753,56 C11.5005818,70.2821483 6.92292921,77.8153368 9.86179529,78.5995655 C12.8006614,79.3837941 19.2458249,73.3064125 29.1972858,60.3674207 Z" id="Path-12" fill="#C1A556"></path>
                <path d="M90.4067757,70.2585373 C136.02628,70.2585373 167.026498,54.2068862 162.341665,51.3361815 C157.656832,48.4654768 136.52628,65.2684507 90.4067757,65.2684507 C44.2872718,65.2684507 25.4831239,43.0794786 21.3616381,46.0053816 C17.2401523,48.9312845 44.7872718,70.2585373 90.4067757,70.2585373 Z" id="Path-13" fill="#916725"></path>
            </g>
            <path d="M79.8259377,126.468715 C50.2170286,126.468715 43.532103,157.623494 109.434847,195.222863 C175.337591,232.822231 167.344164,281.488964 133.685134,281.488964 C100.026103,281.488964 103.990178,239.587269 129.041588,232.00924 C154.092998,224.43121 0,186.769533 0,150.282835 C0,113.796137 58.5457396,101.693247 89.1990756,101.693247 C152.094147,101.693247 183.541682,131.6592 183.541682,191.591106 C196.988679,182.24665 207.89483,174.652796 216.260135,168.809544 C224.625441,162.966292 235.352575,156.790722 248.441539,150.282835 L324.239634,150.282835 L425.142548,145.938969 C440.073105,171.495778 469.976748,182.600726 514.853477,179.253813 C582.168571,174.233443 677.297465,136.533192 698.375899,136.533192 C712.428188,136.533192 723.919851,141.116406 732.850888,150.282835 C664.72577,177.135288 618.543507,199.75168 594.304099,218.132011 C557.944988,245.702507 463.127642,330.775825 330.541801,330.775825 C197.95596,330.775825 164.14264,253.924402 164.14264,218.132011 C164.14264,182.33962 109.434847,126.468715 79.8259377,126.468715 Z" id="Path" fill="#C1A556"></path>
            <g id="Group-3" transform="translate(242.000000, 0.000000)">
                <path d="M189.028098,147.039813 C200.486084,158.191906 115.555217,158.191906 103.855678,158.191906 C92.1561385,158.191906 8.8216567,155.374458 0.90537556,147.039813 C-3.33246089,142.578013 21.6260229,135.900485 32.1041471,122.47586 C41.6680053,110.222596 57.7013725,102.284441 74.1516324,98.7729047 C75.3973858,98.5069813 78.9048887,92.8314973 76.6279407,86.4843969 C73.5149307,77.8067342 64.1502553,66.5268166 65.2828303,53.7335881 C67.8823516,24.3701712 91.845692,0.370595206 95.2570904,0.370595206 C98.9232922,0.370595206 119.653801,17.0445552 124.425444,53.7335881 C126.374664,68.7210875 115.894352,79.9432784 112.188219,88.0669106 C110.159918,92.5128321 113.20422,97.9376181 114.354477,98.1134217 C132.146028,100.832656 148.08211,108.044384 156.359689,124.650969 C162.072245,136.111574 183.689197,141.843444 189.028098,147.039813 Z" id="Path-2" fill="#E8CD83"></path>
                <path d="M84.9237032,131.654552 L97.3358592,131.654552 C98.4404287,131.654552 99.3358592,132.549982 99.3358592,133.654552 C99.3358592,133.875865 99.2991262,134.095643 99.2271577,134.304928 L93.3660663,151.349011 C93.0883873,152.156502 92.3286697,152.698634 91.4747677,152.698634 L88.6746504,152.698634 C87.7357182,152.698634 86.9231963,152.045483 86.7213915,151.128494 L82.9704443,134.084412 C82.7330391,133.005657 83.415088,131.938698 84.4938431,131.701293 C84.6350196,131.670223 84.7791484,131.654552 84.9237032,131.654552 Z" id="Rectangle" fill="#C1A556"></path>
                <path d="M106.727456,132.051397 L116.042097,131.739204 C117.146047,131.702203 118.070969,132.567137 118.10797,133.671086 C118.113153,133.825724 118.100374,133.980441 118.069889,134.132133 L116.263765,143.119378 L116.263765,143.119378 L115.314628,151.496432 C115.200082,152.507409 114.344789,153.271269 113.327343,153.271269 L110.887829,153.271269 C109.999944,153.271269 109.218353,152.685903 108.96859,151.833871 L106.65163,143.929883 L106.65163,143.929883 L104.830205,134.426753 C104.622281,133.34193 105.333149,132.293952 106.417972,132.086028 C106.520076,132.066458 106.623551,132.054879 106.727456,132.051397 Z" id="Rectangle" fill="#C1A556"></path>
                <path d="M127.099057,131.390495 L135.994337,130.511961 C137.093558,130.403398 138.072662,131.206485 138.181225,132.305706 C138.187677,132.371032 138.190909,132.436635 138.190909,132.502278 C138.190909,135.72705 138.190909,138.951821 138.190909,142.176593 C138.190909,144.189994 138.508483,146.955461 139.143631,150.472994 C139.329121,151.500106 138.646826,152.483096 137.619709,152.668559 C137.508891,152.688569 137.396508,152.698634 137.283898,152.698634 L136.122679,152.698634 C135.4254,152.698634 134.778454,152.335478 134.415315,151.740222 L129.076095,142.988211 L129.076095,142.988211 L125.445345,134.140056 C125.026026,133.118173 125.5145,131.949848 126.536384,131.530528 C126.716143,131.456766 126.905692,131.409592 127.099057,131.390495 Z" id="Rectangle" fill="#C1A556"></path>
                <path d="M148.254567,126.945873 L156.295258,127.167309 C157.080391,127.188911 157.780188,127.668079 158.08426,128.392262 C160.499785,134.145118 162.252866,138.206166 163.343503,140.575407 C164.385455,142.838886 167.015649,146.266199 171.234085,150.857346 C171.605383,151.261453 171.578789,151.890044 171.174683,152.261345 C170.991324,152.42982 170.751392,152.523311 170.502385,152.523311 L168.696244,152.523311 C168.381356,152.5233 168.070917,152.448948 167.790195,152.306295 C160.571334,148.637929 155.909801,145.727633 153.805595,143.575407 C151.898497,141.624788 149.415124,137.006122 146.355475,129.719407 C145.92785,128.700976 146.406785,127.528713 147.425213,127.101081 C147.687481,126.990956 147.970224,126.938043 148.254567,126.945873 Z" id="Rectangle" fill="#C1A556" transform="translate(158.983568, 139.692268) rotate(-13.000000) translate(-158.983568, -139.692268) "></path>
                <g id="Group" transform="translate(46.423606, 136.838923) scale(-1, 1) rotate(-3.000000) translate(-46.423606, -136.838923) translate(13.423606, 121.838923)" fill="#C1A556">
                    <path d="M2.71197802,7.5421783 L11.8765631,7.22559705 C12.9804742,7.18746357 13.9062842,8.051447 13.9444177,9.15535806 C13.9496502,9.30683125 13.9376475,9.45840835 13.9086409,9.60717031 L12.1148169,18.8068821 L12.1148169,18.8068821 L11.1748539,27.3573213 C11.0633965,28.3712022 10.2068193,29.1387748 9.18683045,29.1387748 L6.83770934,29.1387748 C5.9438596,29.1387748 5.15853284,28.5456627 4.91400407,27.685911 L2.62325878,19.6317579 L2.62325878,19.6317579 L0.81473562,9.90664556 C0.612787466,8.82069403 1.32941379,7.77664505 2.41536532,7.5746969 C2.51328856,7.55648668 2.61243533,7.5456169 2.71197802,7.5421783 Z" id="Rectangle"></path>
                    <path d="M19.6128842,8.30729397 L28.7734558,6.43445635 C29.8556334,6.21323058 30.9122633,6.91115066 31.1335088,7.99332422 C31.1652866,8.14875821 31.178457,8.30742124 31.1727421,8.46596742 C30.9867786,13.6251536 30.8937968,17.2554021 30.8937968,19.356713 C30.8937968,21.3844622 31.2101207,24.1717228 31.8427685,27.7184945 C32.0247531,28.7388114 31.3451618,29.7134772 30.3248471,29.8954737 C30.2160751,29.9148756 30.1058021,29.9246335 29.9953133,29.9246335 L28.86362,29.9246335 C28.1619835,29.9246335 27.5116582,29.556961 27.149919,28.9557634 L21.8646711,20.1718701 L21.8646711,20.1718701 L18.1595664,11.017077 C17.7451791,9.99318401 18.239281,8.82722739 19.263174,8.41284001 C19.3762804,8.36706388 19.4933386,8.33173455 19.6128842,8.30729397 Z" id="Rectangle"></path>
                    <path d="M38.7297465,2.87536585 L47.3865933,2.77915176 C48.2390411,2.76966967 49.0037948,3.3015829 49.2914947,4.10407023 C51.0046327,8.88256155 52.4108782,12.4356334 53.5102312,14.7632858 C54.582148,17.0328476 57.2852616,20.467427 61.6195723,25.0670241 C62.0006936,25.4714534 61.9817838,26.1082675 61.5773456,26.4893793 C61.3906495,26.6653075 61.1438087,26.7632858 60.8872816,26.7632858 L59.0007015,26.7632858 C58.6928352,26.7633034 58.3891248,26.6922301 58.1132277,26.5556197 C50.6625291,22.8664077 45.8520038,19.9399901 43.6816517,17.7763668 C41.7448641,15.8455838 39.486785,11.8028885 36.9074144,5.64828111 C36.4804817,4.62956029 36.960212,3.45762296 37.9789296,3.03068261 C38.2168434,2.93097394 38.4717997,2.87823272 38.7297465,2.87536585 Z" id="Rectangle" transform="translate(49.516822, 14.763286) rotate(-12.000000) translate(-49.516822, -14.763286) "></path>
                </g>
                <path d="M88.380496,127.800588 C134,127.800588 161.000219,122.748937 156.315385,119.878232 C151.630552,117.007527 134.5,122.810501 88.380496,122.810501 C42.2609921,122.810501 38.4568442,113.621529 34.3353584,116.547432 C30.2138726,119.473335 42.7609921,127.800588 88.380496,127.800588 Z" id="Path-13" fill="#956C30"></path>
            </g>
            <path d="M698.673002,139.21858 C706.239509,139.284909 712.092679,140.466365 716.232514,142.762948 C722.442265,146.207823 728.944513,148.156553 726.354686,149.765657 C723.764858,151.374762 708.537089,150.042444 703.605046,148.058555 C700.317017,146.735963 698.673002,143.789304 698.673002,139.21858 Z" id="Path-5" fill="#2B1D00"></path>
        </g>
    </g>
</svg>